<svg width="60" height="60" viewBox="0 0 60 60" fill="none" xmlns="http://www.w3.org/2000/svg">
<circle cx="33" cy="30" r="16" fill="#E2E5E9"/>
<mask id="path-2-inside-1" fill="white">
<path d="M30 11C33.1645 11 36.2579 11.9384 38.8891 13.6965C41.5203 15.4546 43.5711 17.9534 44.7821 20.8771C45.9931 23.8007 46.3099 27.0177 45.6926 30.1214C45.0752 33.2251 43.5513 36.0761 41.3137 38.3137C39.0761 40.5513 36.2251 42.0752 33.1214 42.6926C30.0177 43.3099 26.8007 42.9931 23.8771 41.7821C20.9534 40.5711 18.4546 38.5203 16.6965 35.8891C14.9384 33.2579 14 30.1645 14 27H15.6C15.6 29.8481 16.4445 32.6321 18.0268 35.0002C19.6091 37.3683 21.8581 39.214 24.4894 40.3039C27.1206 41.3938 30.016 41.6789 32.8093 41.1233C35.6026 40.5677 38.1685 39.1962 40.1823 37.1823C42.1962 35.1685 43.5677 32.6026 44.1233 29.8093C44.6789 27.016 44.3938 24.1206 43.3039 21.4894C42.214 18.8581 40.3683 16.6091 38.0002 15.0268C35.6321 13.4445 32.8481 12.6 30 12.6V11Z"/>
</mask>
<path d="M30 11C33.1645 11 36.2579 11.9384 38.8891 13.6965C41.5203 15.4546 43.5711 17.9534 44.7821 20.8771C45.9931 23.8007 46.3099 27.0177 45.6926 30.1214C45.0752 33.2251 43.5513 36.0761 41.3137 38.3137C39.0761 40.5513 36.2251 42.0752 33.1214 42.6926C30.0177 43.3099 26.8007 42.9931 23.8771 41.7821C20.9534 40.5711 18.4546 38.5203 16.6965 35.8891C14.9384 33.2579 14 30.1645 14 27H15.6C15.6 29.8481 16.4445 32.6321 18.0268 35.0002C19.6091 37.3683 21.8581 39.214 24.4894 40.3039C27.1206 41.3938 30.016 41.6789 32.8093 41.1233C35.6026 40.5677 38.1685 39.1962 40.1823 37.1823C42.1962 35.1685 43.5677 32.6026 44.1233 29.8093C44.6789 27.016 44.3938 24.1206 43.3039 21.4894C42.214 18.8581 40.3683 16.6091 38.0002 15.0268C35.6321 13.4445 32.8481 12.6 30 12.6V11Z" stroke="#21252C" stroke-width="4" mask="url(#path-2-inside-1)"/>
<mask id="path-3-inside-2" fill="white">
<path d="M30 15C31.8407 15 33.6566 15.4234 35.3075 16.2375C36.9583 17.0516 38.3997 18.2346 39.5202 19.6949C40.6408 21.1552 41.4103 22.8536 41.7694 24.6589C42.1285 26.4642 42.0675 28.3279 41.5911 30.1058C41.1147 31.8838 40.2357 33.5283 39.0221 34.9122C37.8085 36.296 36.2927 37.3822 34.5922 38.0866C32.8917 38.7909 31.0519 39.0947 29.2152 38.9743C27.3784 38.8539 25.594 38.3126 24 37.3923L24.9299 35.7816C26.2769 36.5593 27.7848 37.0167 29.3368 37.1184C30.8888 37.2201 32.4435 36.9635 33.8805 36.3683C35.3174 35.773 36.5982 34.8552 37.6238 33.6859C38.6493 32.5165 39.3921 31.1268 39.7946 29.6245C40.1972 28.1221 40.2487 26.5472 39.9453 25.0218C39.6419 23.4963 38.9916 22.061 38.0447 20.8271C37.0979 19.5931 35.8798 18.5935 34.4849 17.9056C33.0899 17.2177 31.5554 16.8599 30 16.8599V15Z"/>
</mask>
<path d="M30 15C31.8407 15 33.6566 15.4234 35.3075 16.2375C36.9583 17.0516 38.3997 18.2346 39.5202 19.6949C40.6408 21.1552 41.4103 22.8536 41.7694 24.6589C42.1285 26.4642 42.0675 28.3279 41.5911 30.1058C41.1147 31.8838 40.2357 33.5283 39.0221 34.9122C37.8085 36.296 36.2927 37.3822 34.5922 38.0866C32.8917 38.7909 31.0519 39.0947 29.2152 38.9743C27.3784 38.8539 25.594 38.3126 24 37.3923L24.9299 35.7816C26.2769 36.5593 27.7848 37.0167 29.3368 37.1184C30.8888 37.2201 32.4435 36.9635 33.8805 36.3683C35.3174 35.773 36.5982 34.8552 37.6238 33.6859C38.6493 32.5165 39.3921 31.1268 39.7946 29.6245C40.1972 28.1221 40.2487 26.5472 39.9453 25.0218C39.6419 23.4963 38.9916 22.061 38.0447 20.8271C37.0979 19.5931 35.8798 18.5935 34.4849 17.9056C33.0899 17.2177 31.5554 16.8599 30 16.8599V15Z" stroke="#21252C" stroke-width="4" mask="url(#path-3-inside-2)"/>
<mask id="path-4-inside-3" fill="white">
<path d="M34 33.9282C35.5251 33.0477 36.7171 31.6885 37.391 30.0615C38.065 28.4344 38.1832 26.6305 37.7274 24.9294C37.2716 23.2284 36.2672 21.7252 34.8701 20.6532C33.4729 19.5811 31.7611 19 30 19L30 21.0142C31.3177 21.0142 32.5985 21.449 33.6439 22.2512C34.6893 23.0533 35.4408 24.178 35.7818 25.4508C36.1229 26.7235 36.0344 28.0733 35.5301 29.2907C35.0259 30.508 34.134 31.525 32.9929 32.1838L34 33.9282Z"/>
</mask>
<path d="M34 33.9282C35.5251 33.0477 36.7171 31.6885 37.391 30.0615C38.065 28.4344 38.1832 26.6305 37.7274 24.9294C37.2716 23.2284 36.2672 21.7252 34.8701 20.6532C33.4729 19.5811 31.7611 19 30 19L30 21.0142C31.3177 21.0142 32.5985 21.449 33.6439 22.2512C34.6893 23.0533 35.4408 24.178 35.7818 25.4508C36.1229 26.7235 36.0344 28.0733 35.5301 29.2907C35.0259 30.508 34.134 31.525 32.9929 32.1838L34 33.9282Z" stroke="#21252C" stroke-width="4" mask="url(#path-4-inside-3)"/>
<path fill-rule="evenodd" clip-rule="evenodd" d="M7.74995 7.68292C6.01573 7.25909 5.74248 6.98545 5.31708 5.25005C5.2817 5.10261 5.1496 5 4.99902 5C4.84883 5 4.71673 5.10261 4.68134 5.25005C4.25752 6.98427 3.98545 7.25595 2.25005 7.68134C2.10261 7.71673 2 7.84883 2 7.99941C2 8.1496 2.10261 8.2817 2.25005 8.31708C3.98388 8.74248 4.25595 9.01455 4.68134 10.75C4.71673 10.8974 4.84883 11 4.99902 11C5.1496 11 5.2817 10.8974 5.31708 10.75C5.74248 9.01573 6.01573 8.74248 7.74995 8.31708C7.89739 8.2817 8 8.1496 8 7.99941C8 7.84883 7.89581 7.71987 7.74995 7.68292Z" fill="#55C392"/>
<path fill-rule="evenodd" clip-rule="evenodd" d="M50.7916 50.2358C49.3464 49.8826 49.1187 49.6545 48.7642 48.2084C48.7347 48.0855 48.6247 48 48.4992 48C48.374 48 48.2639 48.0855 48.2345 48.2084C47.8813 49.6536 47.6545 49.88 46.2084 50.2345C46.0855 50.2639 46 50.374 46 50.4995C46 50.6247 46.0855 50.7347 46.2084 50.7642C47.6532 51.1187 47.88 51.3455 48.2345 52.7916C48.2639 52.9145 48.374 53 48.4992 53C48.6247 53 48.7347 52.9145 48.7642 52.7916C49.1187 51.3464 49.3464 51.1187 50.7916 50.7642C50.9145 50.7347 51 50.6247 51 50.4995C51 50.374 50.9132 50.2666 50.7916 50.2358Z" fill="#30BAE8"/>
<path fill-rule="evenodd" clip-rule="evenodd" d="M52 11C53.6569 11 55 9.65685 55 8C55 6.34315 53.6569 5 52 5C50.3431 5 49 6.34315 49 8C49 9.65685 50.3431 11 52 11Z" fill="#F0C775"/>
</svg>
