<svg width="60" height="60" viewBox="0 0 60 60" fill="none" xmlns="http://www.w3.org/2000/svg">
<path fill-rule="evenodd" clip-rule="evenodd" d="M7.74995 7.68292C6.01573 7.25909 5.74248 6.98545 5.31708 5.25005C5.2817 5.10261 5.1496 5 4.99902 5C4.84883 5 4.71673 5.10261 4.68134 5.25005C4.25752 6.98427 3.98545 7.25595 2.25005 7.68134C2.10261 7.71673 2 7.84883 2 7.99941C2 8.1496 2.10261 8.2817 2.25005 8.31708C3.98388 8.74248 4.25595 9.01455 4.68134 10.75C4.71673 10.8974 4.84883 11 4.99902 11C5.1496 11 5.2817 10.8974 5.31708 10.75C5.74248 9.01573 6.01573 8.74248 7.74995 8.31708C7.89739 8.2817 8 8.1496 8 7.99941C8 7.84883 7.89581 7.71987 7.74995 7.68292Z" fill="#55C392"/>
<path fill-rule="evenodd" clip-rule="evenodd" d="M50.7916 50.2358C49.3464 49.8826 49.1187 49.6545 48.7642 48.2084C48.7347 48.0855 48.6247 48 48.4992 48C48.374 48 48.2639 48.0855 48.2345 48.2084C47.8813 49.6536 47.6545 49.88 46.2084 50.2345C46.0855 50.2639 46 50.374 46 50.4995C46 50.6247 46.0855 50.7347 46.2084 50.7642C47.6532 51.1187 47.88 51.3455 48.2345 52.7916C48.2639 52.9145 48.374 53 48.4992 53C48.6247 53 48.7347 52.9145 48.7642 52.7916C49.1187 51.3464 49.3464 51.1187 50.7916 50.7642C50.9145 50.7347 51 50.6247 51 50.4995C51 50.374 50.9132 50.2666 50.7916 50.2358Z" fill="#30BAE8"/>
<path fill-rule="evenodd" clip-rule="evenodd" d="M52 11C53.6569 11 55 9.65685 55 8C55 6.34315 53.6569 5 52 5C50.3431 5 49 6.34315 49 8C49 9.65685 50.3431 11 52 11Z" fill="#F0C775"/>
<path fill-rule="evenodd" clip-rule="evenodd" d="M49.6294 44.1114C51.827 40.8224 53 36.9556 53 33C53 30.3736 52.4827 27.7728 51.4776 25.3463C50.4725 22.9198 48.9993 20.715 47.1421 18.8579C45.285 17.0007 43.0802 15.5275 40.6537 14.5224C38.2272 13.5173 35.6264 13 33 13C29.0444 13 25.1776 14.173 21.8886 16.3706C18.5996 18.5682 16.0362 21.6918 14.5224 25.3463C13.0087 29.0009 12.6126 33.0222 13.3843 36.9018C14.156 40.7814 16.0608 44.3451 18.8579 47.1421C21.6549 49.9392 25.2186 51.844 29.0982 52.6157C32.9778 53.3874 36.9992 52.9913 40.6537 51.4776C44.3082 49.9638 47.4318 47.4004 49.6294 44.1114ZM33 17C29.8355 17 26.7421 17.9384 24.1109 19.6965C21.4797 21.4546 19.4289 23.9534 18.2179 26.8771C17.0069 29.8007 16.6901 33.0177 17.3074 36.1214C17.9248 39.2251 19.4487 42.0761 21.6863 44.3137C23.9239 46.5513 26.7749 48.0752 29.8786 48.6926C32.9823 49.3099 36.1993 48.9931 39.1229 47.7821C42.0466 46.5711 44.5454 44.5203 46.3035 41.8891C48.0616 39.2579 49 36.1645 49 33H33V17Z" fill="#E2E5E9"/>
<path d="M50 30C50 33.9556 48.827 37.8224 46.6294 41.1114C44.4318 44.4004 41.3082 46.9638 37.6537 48.4776C33.9991 49.9913 29.9778 50.3874 26.0982 49.6157C22.2186 48.844 18.6549 46.9392 15.8579 44.1421C13.0608 41.3451 11.156 37.7814 10.3843 33.9018C9.61259 30.0222 10.0087 26.0009 11.5224 22.3463C13.0362 18.6918 15.5996 15.5682 18.8886 13.3706C22.1776 11.173 26.0444 10 30 10V14C26.8355 14 23.7421 14.9384 21.1109 16.6965C18.4797 18.4546 16.4289 20.9534 15.2179 23.8771C14.0069 26.8007 13.6901 30.0177 14.3074 33.1214C14.9248 36.2251 16.4487 39.0761 18.6863 41.3137C20.9239 43.5513 23.7749 45.0752 26.8786 45.6926C29.9823 46.3099 33.1993 45.9931 36.1229 44.7821C39.0466 43.5711 41.5454 41.5203 43.3035 38.8891C45.0616 36.2579 46 33.1645 46 30H50Z" fill="#21252C"/>
<mask id="path-6-inside-1" fill="white">
<path d="M50 30C50 27.3736 49.4827 24.7728 48.4776 22.3463C47.4725 19.9198 45.9993 17.715 44.1421 15.8579C42.285 14.0007 40.0802 12.5275 37.6537 11.5224C35.2272 10.5173 32.6264 10 30 10V30H50Z"/>
</mask>
<path d="M50 30C50 27.3736 49.4827 24.7728 48.4776 22.3463C47.4725 19.9198 45.9993 17.715 44.1421 15.8579C42.285 14.0007 40.0802 12.5275 37.6537 11.5224C35.2272 10.5173 32.6264 10 30 10V30H50Z" stroke="#21252C" stroke-width="8" mask="url(#path-6-inside-1)"/>
</svg>
