<svg width="60" height="60" viewBox="0 0 60 60" fill="none" xmlns="http://www.w3.org/2000/svg">
<path fill-rule="evenodd" clip-rule="evenodd" d="M14 19C14 16.7909 15.7909 15 18 15H50C52.2091 15 54 16.7909 54 19V41C54 43.2091 52.2091 45 50 45H41V51H44C44.5523 51 45 51.4477 45 52C45 52.5523 44.5523 53 44 53H41H27H24C23.4477 53 23 52.5523 23 52C23 51.4477 23.4477 51 24 51H27V45H18C15.7909 45 14 43.2091 14 41V19Z" fill="#E2E5E9"/>
<path d="M11 15C11 13.3431 12.3431 12 14 12H46C47.6569 12 49 13.3431 49 15V37C49 38.6569 47.6569 40 46 40H14C12.3431 40 11 38.6569 11 37V15Z" stroke="black" stroke-width="2"/>
<path d="M24 40H36V44H24V40Z" stroke="black" stroke-width="2"/>
<line x1="20" y1="44" x2="40" y2="44" stroke="black" stroke-width="2" stroke-linecap="round"/>
<line x1="10" y1="34" x2="50" y2="34" stroke="black" stroke-width="2"/>
<circle cx="30" cy="22" r="4" stroke="black" stroke-width="2"/>
<path d="M39 35C39 30.0294 34.9706 26 30 26C25.0294 26 21 30.0294 21 35" stroke="black" stroke-width="2"/>
<path fill-rule="evenodd" clip-rule="evenodd" d="M7.74995 7.68292C6.01573 7.25909 5.74248 6.98545 5.31708 5.25005C5.2817 5.10261 5.1496 5 4.99902 5C4.84883 5 4.71673 5.10261 4.68134 5.25005C4.25752 6.98427 3.98545 7.25595 2.25005 7.68134C2.10261 7.71673 2 7.84883 2 7.99941C2 8.1496 2.10261 8.2817 2.25005 8.31708C3.98388 8.74248 4.25595 9.01455 4.68134 10.75C4.71673 10.8974 4.84883 11 4.99902 11C5.1496 11 5.2817 10.8974 5.31708 10.75C5.74248 9.01573 6.01573 8.74248 7.74995 8.31708C7.89739 8.2817 8 8.1496 8 7.99941C8 7.84883 7.89581 7.71987 7.74995 7.68292Z" fill="#55C392"/>
<path fill-rule="evenodd" clip-rule="evenodd" d="M50.7916 50.2358C49.3464 49.8826 49.1187 49.6545 48.7642 48.2084C48.7347 48.0855 48.6247 48 48.4992 48C48.374 48 48.2639 48.0855 48.2345 48.2084C47.8813 49.6536 47.6545 49.88 46.2084 50.2345C46.0855 50.2639 46 50.374 46 50.4995C46 50.6247 46.0855 50.7347 46.2084 50.7642C47.6532 51.1187 47.88 51.3455 48.2345 52.7916C48.2639 52.9145 48.374 53 48.4992 53C48.6247 53 48.7347 52.9145 48.7642 52.7916C49.1187 51.3464 49.3464 51.1187 50.7916 50.7642C50.9145 50.7347 51 50.6247 51 50.4995C51 50.374 50.9132 50.2666 50.7916 50.2358Z" fill="#30BAE8"/>
<path fill-rule="evenodd" clip-rule="evenodd" d="M52 11C53.6569 11 55 9.65685 55 8C55 6.34315 53.6569 5 52 5C50.3431 5 49 6.34315 49 8C49 9.65685 50.3431 11 52 11Z" fill="#F0C775"/>
</svg>
